<svg xmlns="http://www.w3.org/2000/svg" width="32" height="24" viewBox="0 0 32 24" role="img" aria-label="United States flag">
  <rect width="32" height="24" fill="#B22234" />

  <rect y="1.846" width="32" height="1.846" fill="#FFFFFF" />
  <rect y="5.538" width="32" height="1.846" fill="#FFFFFF" />
  <rect y="9.230" width="32" height="1.846" fill="#FFFFFF" />
  <rect y="12.922" width="32" height="1.846" fill="#FFFFFF" />
  <rect y="16.614" width="32" height="1.846" fill="#FFFFFF" />
  <rect y="20.306" width="32" height="1.846" fill="#FFFFFF" />

  <rect width="14" height="12.923" fill="#3C3B6E" />

  <g fill="#FFFFFF">
    <circle cx="2.0" cy="2.0" r="0.55" />
    <circle cx="4.5" cy="2.0" r="0.55" />
    <circle cx="7.0" cy="2.0" r="0.55" />
    <circle cx="9.5" cy="2.0" r="0.55" />
    <circle cx="12.0" cy="2.0" r="0.55" />

    <circle cx="3.25" cy="3.8" r="0.55" />
    <circle cx="5.75" cy="3.8" r="0.55" />
    <circle cx="8.25" cy="3.8" r="0.55" />
    <circle cx="10.75" cy="3.8" r="0.55" />

    <circle cx="2.0" cy="5.6" r="0.55" />
    <circle cx="4.5" cy="5.6" r="0.55" />
    <circle cx="7.0" cy="5.6" r="0.55" />
    <circle cx="9.5" cy="5.6" r="0.55" />
    <circle cx="12.0" cy="5.6" r="0.55" />

    <circle cx="3.25" cy="7.4" r="0.55" />
    <circle cx="5.75" cy="7.4" r="0.55" />
    <circle cx="8.25" cy="7.4" r="0.55" />
    <circle cx="10.75" cy="7.4" r="0.55" />

    <circle cx="2.0" cy="9.2" r="0.55" />
    <circle cx="4.5" cy="9.2" r="0.55" />
    <circle cx="7.0" cy="9.2" r="0.55" />
    <circle cx="9.5" cy="9.2" r="0.55" />
    <circle cx="12.0" cy="9.2" r="0.55" />

    <circle cx="3.25" cy="11.0" r="0.55" />
    <circle cx="5.75" cy="11.0" r="0.55" />
    <circle cx="8.25" cy="11.0" r="0.55" />
    <circle cx="10.75" cy="11.0" r="0.55" />
  </g>
</svg>
